<svg width="300" height="300" viewBox="0 0 300 300" fill="none" xmlns="http://www.w3.org/2000/svg">
  <!-- Background -->
  <rect width="300" height="300" fill="#F8F9FF"/>
  
  <!-- School building -->
  <rect x="50" y="120" width="200" height="120" fill="#4F46E5" rx="8"/>
  <rect x="60" y="130" width="30" height="40" fill="#FFFFFF" rx="4"/>
  <rect x="100" y="130" width="30" height="40" fill="#FFFFFF" rx="4"/>
  <rect x="140" y="130" width="30" height="40" fill="#FFFFFF" rx="4"/>
  <rect x="180" y="130" width="30" height="40" fill="#FFFFFF" rx="4"/>
  <rect x="220" y="130" width="20" height="60" fill="#FFFFFF" rx="4"/>
  
  <!-- Door -->
  <rect x="130" y="190" width="40" height="50" fill="#8B5CF6" rx="4"/>
  <circle cx="160" cy="215" r="2" fill="#FFFFFF"/>
  
  <!-- Students -->
  <!-- Student 1 -->
  <circle cx="80" cy="260" r="15" fill="#FDE68A"/>
  <rect x="70" y="270" width="20" height="25" fill="#3B82F6" rx="10"/>
  <rect x="75" y="285" width="10" height="15" fill="#1F2937"/>
  
  <!-- Student 2 -->
  <circle cx="150" cy="260" r="15" fill="#FBBF24"/>
  <rect x="140" y="270" width="20" height="25" fill="#EF4444" rx="10"/>
  <rect x="145" y="285" width="10" height="15" fill="#1F2937"/>
  
  <!-- Student 3 -->
  <circle cx="220" cy="260" r="15" fill="#F59E0B"/>
  <rect x="210" y="270" width="20" height="25" fill="#10B981" rx="10"/>
  <rect x="215" y="285" width="10" height="15" fill="#1F2937"/>
  
  <!-- Books floating -->
  <rect x="40" y="80" width="15" height="20" fill="#F59E0B" rx="2" transform="rotate(-15 47.5 90)"/>
  <rect x="250" y="90" width="15" height="20" fill="#EF4444" rx="2" transform="rotate(20 257.5 100)"/>
  <rect x="200" y="60" width="15" height="20" fill="#10B981" rx="2" transform="rotate(-10 207.5 70)"/>
  
  <!-- Clouds -->
  <circle cx="70" cy="40" r="12" fill="#E5E7EB"/>
  <circle cx="85" cy="40" r="15" fill="#E5E7EB"/>
  <circle cx="100" cy="40" r="12" fill="#E5E7EB"/>
  
  <circle cx="220" cy="30" r="10" fill="#E5E7EB"/>
  <circle cx="235" cy="30" r="12" fill="#E5E7EB"/>
  <circle cx="250" cy="30" r="10" fill="#E5E7EB"/>
</svg>