<svg width="200" height="150" viewBox="0 0 200 150" fill="none" xmlns="http://www.w3.org/2000/svg">
  <!-- Background -->
  <rect width="200" height="150" fill="#F8FAFC"/>
  
  <!-- School Building -->
  <rect x="40" y="60" width="120" height="70" fill="#E2E8F0" stroke="#CBD5E1" stroke-width="2"/>
  
  <!-- Roof -->
  <polygon points="35,60 100,30 165,60" fill="#4F46E5"/>
  
  <!-- Door -->
  <rect x="90" y="100" width="20" height="30" fill="#8B5CF6"/>
  <circle cx="105" cy="115" r="2" fill="#F1F5F9"/>
  
  <!-- Windows -->
  <rect x="55" y="80" width="15" height="15" fill="#60A5FA" stroke="#3B82F6" stroke-width="1"/>
  <rect x="130" y="80" width="15" height="15" fill="#60A5FA" stroke="#3B82F6" stroke-width="1"/>
  
  <!-- Window frames -->
  <line x1="62.5" y1="80" x2="62.5" y2="95" stroke="#3B82F6" stroke-width="1"/>
  <line x1="55" y1="87.5" x2="70" y2="87.5" stroke="#3B82F6" stroke-width="1"/>
  <line x1="137.5" y1="80" x2="137.5" y2="95" stroke="#3B82F6" stroke-width="1"/>
  <line x1="130" y1="87.5" x2="145" y2="87.5" stroke="#3B82F6" stroke-width="1"/>
  
  <!-- Flag pole -->
  <line x1="170" y1="30" x2="170" y2="70" stroke="#64748B" stroke-width="2"/>
  <rect x="170" y="30" width="20" height="12" fill="#EF4444"/>
  <rect x="170" y="42" width="20" height="12" fill="#F1F5F9"/>
  
  <!-- Trees -->
  <circle cx="20" cy="90" r="15" fill="#10B981"/>
  <rect x="17" y="90" width="6" height="20" fill="#92400E"/>
  
  <circle cx="180" cy="95" r="12" fill="#10B981"/>
  <rect x="177" y="95" width="6" height="15" fill="#92400E"/>
  
  <!-- Students -->
  <circle cx="70" cy="120" r="5" fill="#FDE68A"/>
  <rect x="67" y="125" width="6" height="10" fill="#3B82F6"/>
  
  <circle cx="130" cy="118" r="5" fill="#FDE68A"/>
  <rect x="127" y="123" width="6" height="12" fill="#EF4444"/>
  
  <!-- Books -->
  <rect x="75" y="125" width="3" height="5" fill="#8B5CF6"/>
  <rect x="78" y="125" width="3" height="5" fill="#10B981"/>
  
  <!-- Sun -->
  <circle cx="170" cy="20" r="8" fill="#FCD34D"/>
  <line x1="170" y1="5" x2="170" y2="10" stroke="#FCD34D" stroke-width="2"/>
  <line x1="185" y1="20" x2="180" y2="20" stroke="#FCD34D" stroke-width="2"/>
  <line x1="170" y1="35" x2="170" y2="30" stroke="#FCD34D" stroke-width="2"/>
  <line x1="155" y1="20" x2="160" y2="20" stroke="#FCD34D" stroke-width="2"/>
  
  <!-- Clouds -->
  <ellipse cx="50" cy="25" rx="12" ry="6" fill="#F1F5F9"/>
  <ellipse cx="45" cy="25" rx="8" ry="4" fill="#F1F5F9"/>
  <ellipse cx="55" cy="25" rx="8" ry="4" fill="#F1F5F9"/>
  
  <ellipse cx="120" cy="20" rx="10" ry="5" fill="#F1F5F9"/>
  <ellipse cx="115" cy="20" rx="6" ry="3" fill="#F1F5F9"/>
  <ellipse cx="125" cy="20" rx="6" ry="3" fill="#F1F5F9"/>
</svg>